<svg height="512pt" viewBox="-28 0 512 512" width="512pt" xmlns="http://www.w3.org/2000/svg"><path d="m283.40625 32.855469c-5.320312-2.660157-11.640625 1.902343-10.796875 7.785156 5.621094 39.359375-5.515625 66.296875-11.351563 77.191406-7.746093-5.664062-16.707031-18.265625-21.53125-35.226562-4.234374-14.878907-8.039062-43.796875 14.03125-70.28125 4-4.800781.464844-12.324219-5.773437-12.324219-45.792969 0-82.464844 27.871094-106.054687 80.59375-11.722657 26.210938-17.417969 52.136719-19.929688 66.652344-11.074219-9.039063-16.710938-22.5-16.792969-40.15625-.082031-17.507813 5.480469-32.671875 5.53125-32.8125 1.121094-2.988282.179688-6.457032-2.296875-8.472656-2.644531-2.144532-6.519531-2.222657-9.246094-.175782-1.027343.769532-25.359374 19.230469-49.839843 55.949219-22.515625 33.773437-49.355469 90.070313-49.355469 166.484375 0 56.738281 24.175781 113.457031 66.328125 155.605469 44.0625 44.066406 102.882813 68.332031 165.625 68.332031 62.738281 0 120.617187-25.417969 162.96875-71.570312 38.746094-42.21875 60.96875-97.757813 60.96875-152.367188 0-112.117188-58.03125-197.980469-172.484375-255.207031zm-51.453125 464.113281c-117.585937 0-216.921875-95.664062-216.921875-208.90625 0-72.355469 25.273438-125.648438 46.476562-157.617188 10.5-15.832031 21.074219-28.15625 29.5-36.902343-.507812 4.113281-.832031 8.550781-.832031 13.164062 0 27.949219 11.832031 48.636719 34.214844 59.828125 4.617187 2.308594 10.292969-.816406 10.832031-5.9375.039063-.367187 4.070313-37.304687 20.425782-73.867187 18.503906-41.359375 44.398437-64.996094 77.117187-70.464844-15.765625 27.628906-11.828125 55.222656-7.496094 70.453125 6.667969 23.441406 21.625 43.246094 36.371094 48.160156 3.066406 1.023438 6.445313-.03125 8.386719-2.621094.96875-1.292968 21.847656-29.804687 18.894531-79.609374 100.839844 54.363281 151.9375 133.503906 151.9375 235.414062 0 100.886719-83.941406 208.90625-208.90625 208.90625zm0 0"/><path d="m368.21875 184.359375h-39.578125c-4.148437 0-7.511719 3.367187-7.511719 7.515625s3.363282 7.515625 7.511719 7.515625h39.578125c9.117188 0 16.53125 7.414063 16.53125 16.53125v152.296875c0 9.117188-7.414062 16.53125-16.53125 16.53125h-272.53125c-9.117188 0-16.53125-7.414062-16.53125-16.53125v-152.296875c0-9.117187 7.414062-16.53125 16.53125-16.53125h196.882812c4.152344 0 7.515626-3.367187 7.515626-7.515625s-3.363282-7.515625-7.515626-7.515625h-196.882812c-17.402344 0-31.5625 14.160156-31.5625 31.5625v152.296875c0 17.402344 14.160156 31.5625 31.5625 31.5625h272.53125c17.402344 0 31.5625-14.160156 31.5625-31.5625v-152.296875c0-17.402344-14.160156-31.5625-31.5625-31.5625zm0 0"/><path d="m179.992188 301.097656 16.792968 23.988282c.570313.796874.796875 1.597656.796875 2.398437 0 3.425781-4.796875 7.308594-8.335937 7.308594-1.488282 0-2.742188-.683594-3.65625-1.941407l-15.421875-22.730468-7.082031 6.511718v12.5625c0 2.285157-3.425782 4.683594-7.539063 4.683594-4.222656 0-7.195313-2.398437-7.195313-4.683594v-76.640624c0-2.742188 2.972657-4.570313 7.195313-4.570313 4.113281 0 7.539063 1.828125 7.539063 4.570313v47.859374l21.476562-20.21875c.796875-.683593 1.828125-1.140624 2.96875-1.140624 3.199219 0 7.195312 3.769531 7.195312 7.082031 0 1.027343-.457031 1.941406-1.253906 2.742187zm0 0"/><path d="m201.695312 311.492188v-9.136719c0-13.136719 7.425782-23.417969 24.671876-23.417969 10.738281 0 18.277343 4.457031 18.277343 8.910156 0 2.742188-2.285156 7.195313-5.828125 7.195313-2.511718 0-4.566406-3.195313-11.308594-3.195313-7.765624 0-11.078124 3.882813-11.078124 10.507813v9.136719c0 6.625 3.3125 10.507812 11.195312 10.507812 6.851562 0 8.566406-3.425781 11.421875-3.425781 3.996094 0 6.28125 4.113281 6.28125 6.96875 0 4.566406-8.109375 9.363281-18.847656 9.363281-17.246094 0-24.785157-10.050781-24.785157-23.414062zm0 0"/><path d="m295.925781 301.214844v27.984375c0 2.625-3.082031 4.683593-7.195312 4.683593-3.769531 0-6.625-2.058593-6.625-4.683593v-3.3125c-4.113281 4.683593-9.480469 9.023437-17.363281 9.023437-8.109376 0-14.847657-4.796875-14.847657-15.191406 0-13.136719 10.851563-16.792969 26.613281-16.792969h4.683594v-1.484375c0-4.910156-2.511718-10.507812-10.050781-10.507812-8.796875 0-10.28125 3.539062-13.023437 3.539062-3.308594 0-5.023438-3.996094-5.023438-7.308594 0-4.683593 10.164062-8.222656 18.273438-8.222656 17.820312 0 24.558593 10.734375 24.558593 22.273438zm-14.734375 9.363281h-1.710937c-7.652344 0-14.851563.800781-14.851563 7.195313 0 4.226562 2.628906 6.167968 6.054688 6.167968 4.683594 0 10.507812-5.367187 10.507812-10.964844zm0 0"/><path d="m322.65625 252.554688v76.640624c0 2.285157-3.429688 4.683594-7.425781 4.683594-4.339844 0-7.308594-2.398437-7.308594-4.683594v-76.640624c0-2.742188 2.96875-4.570313 7.308594-4.570313 3.996093 0 7.425781 1.828125 7.425781 4.570313zm0 0"/></svg>