<svg height="512pt" viewBox="0 0 512.00095 512" width="512pt" xmlns="http://www.w3.org/2000/svg"><path d="m389.503906 21.597656-28.5 38.402344-26.398437 32h-260.996094l-43.601563-32-28.496093-38.402344c-2.101563-4.496094-2.101563-10.199218.597656-14.398437 3-4.496094 7.800781-7.199219 12.902344-7.199219h360.992187c5.101563 0 9.902344 2.703125 12.902344 7.199219 2.695312 4.199219 2.695312 9.902343.597656 14.398437zm0 0" fill="#ffb751"/><path d="m334.601562 92h-138.597656v-92h180c5.097656 0 9.898438 2.703125 12.898438 7.199219 2.699218 4.199219 2.699218 9.902343.601562 14.398437l-28.5 38.402344zm0 0" fill="#ff9b00"/><path d="m388.902344 504.792969c-3 4.5-7.800782 7.199219-12.898438 7.199219h-360.996094c-5.097656 0-9.902343-2.699219-12.898437-7.199219-2.703125-4.199219-2.703125-9.902344-.601563-14.398438l28.5-38.402343 36.097657-30h264.894531l30 30 28.5 38.402343c2.101562 4.5 2.101562 10.199219-.597656 14.398438zm0 0" fill="#ffb751"/><path d="m389.503906 490.394531c2.097656 4.5 2.097656 10.199219-.601562 14.398438-3 4.5-7.800782 7.199219-12.898438 7.199219h-180v-90h135l30 30zm0 0" fill="#ff9b00"/><path d="m361.003906 60h-330.996094c-25.199218 85.796875-29.9999995 166.394531-29.9999995 196.996094 0 32.101562 5.1015625 109.5 29.9999995 194.996094h330.996094c24.898438-85.496094 30-162.894532 30-194.996094 0-30.601563-4.800781-111.199219-30-196.996094zm0 0" fill="#ca6d36"/><path d="m391.003906 256.996094c0 32.101562-5.101562 109.5-30 194.996094h-164.996094v-391.992188h164.996094c25.199219 85.796875 30 166.394531 30 196.996094zm0 0" fill="#a05528"/><path d="m211.003906 346.996094v30c0 8.398437-6.597656 15-14.996094 15-8.402343 0-15-6.601563-15-15v-30c0-8.402344 6.597657-15 15-15 8.398438 0 14.996094 6.597656 14.996094 15zm0 0" fill="#ff9b00"/><path d="m211.003906 346.996094v30c0 8.398437-6.597656 15-14.996094 15v-60c8.398438 0 14.996094 6.597656 14.996094 15zm0 0" fill="#ff8900"/><path d="m275.804688 204.195312c-1.199219-6-6-10.800781-12-11.996093-4.199219-.902344-43.800782-7.800781-66.300782 14.699219-.597656.597656-.898437 1.199218-1.5 1.796874-.601562-.597656-.898437-1.199218-1.5-1.796874-22.5-22.5-62.097656-15.601563-66.300781-14.699219-6 1.195312-10.796875 5.996093-11.996094 11.996093-.902343 4.199219-7.800781 43.800782 14.699219 66.300782 13.5 13.5 33 16.5 47.699219 16.5 8.097656 0 14.398437-.902344 17.398437-1.5 3 .597656 9.300782 1.5 17.703125 1.5 14.398438 0 33.894531-3 47.398438-16.5 22.496093-22.5 15.597656-62.097656 14.699219-66.300782zm0 0" fill="#ff9b00"/><path d="m261.105469 270.496094c-13.5 13.5-33 16.5-47.398438 16.5-8.402343 0-14.703125-.902344-17.703125-1.5v-76.800782c.601563-.597656.902344-1.199218 1.5-1.796874 22.5-22.5 62.101563-15.601563 66.300782-14.699219 6 1.195312 10.800781 5.996093 12 11.996093.898437 4.203126 7.796874 43.800782-14.699219 66.300782zm0 0" fill="#ff8900"/><path d="m275.804688 279.195312c-1.199219-6-6-10.800781-12-12-4.199219-.898437-43.800782-7.800781-66.300782 14.699219-.597656.601563-.898437 1.199219-1.5 1.800781-.601562-.601562-.898437-1.199218-1.5-1.800781-22.5-22.5-62.097656-15.597656-66.300781-14.699219-6 1.199219-10.796875 6-11.996094 12-.902343 4.199219-7.800781 43.800782 14.699219 66.300782 13.5 13.5 33 16.5 47.699219 16.5 8.097656 0 14.398437-.902344 17.398437-1.5 3 .597656 9.300782 1.5 17.703125 1.5 14.398438 0 33.894531-3 47.398438-16.5 22.496093-22.5 15.597656-62.101563 14.699219-66.300782zm0 0" fill="#ffb751"/><path d="m213.707031 361.996094c-8.402343 0-14.703125-.902344-17.703125-1.5v-76.800782c.601563-.601562.902344-1.199218 1.5-1.800781 22.5-22.5 62.101563-15.597656 66.300782-14.699219 6 1.199219 10.800781 6 12 12 .898437 4.199219 7.796874 43.800782-14.699219 66.300782-13.5 13.5-33 16.5-47.398438 16.5zm0 0" fill="#ff9b00"/><path d="m204.40625 109.398438c-2.402344-1.800782-5.402344-2.402344-8.402344-2.402344-2.996094 0-6 .601562-8.398437 2.402344-3.601563 2.699218-36.601563 25.800781-36.601563 57.597656 0 31.800781 33 54.902344 36.601563 57.597656 2.699219 1.5 5.402343 2.402344 8.398437 2.402344 3 0 5.699219-.902344 8.402344-2.402344 3.597656-2.699219 36.597656-25.796875 36.597656-57.597656 0-31.796875-33-54.898438-36.597656-57.597656zm0 0" fill="#ffb751"/><path d="m204.40625 224.597656c-2.703125 1.5-5.402344 2.398438-8.402344 2.398438v-119.996094c3 0 6 .601562 8.402344 2.398438 3.597656 2.699218 36.597656 25.800781 36.597656 57.597656 0 31.800781-33 54.902344-36.597656 57.601562zm0 0" fill="#ff9b00"/><path d="m477.5 366.496094h-201.996094l68.699219-69c8.699219-8.699219 20.398437-12.902344 31.800781-12.902344 11.398438 0 23.097656 4.203125 31.796875 12.902344zm0 0" fill="#ffb751"/><path d="m477.5 366.496094h-101.496094v-81.902344c11.398438 0 23.101563 4.203125 31.796875 12.902344zm0 0" fill="#ff9b00"/><path d="m497 361.996094h-240.996094c-8.398437 0-15 6.597656-15 15 0 74.394531 60.601563 134.996094 135 134.996094 74.398438 0 135.996094-60.601563 135.996094-134.996094 0-8.402344-6.597656-15-15-15zm0 0" fill="#faecd8"/><path d="m512 376.996094c0 74.394531-61.597656 134.996094-135.996094 134.996094v-149.996094h120.996094c8.402344 0 15 6.597656 15 15zm0 0" fill="#f4d7af"/></svg>