<?xml version="1.0" encoding="iso-8859-1"?>
<!-- Generator: Adobe Illustrator 19.1.0, SVG Export Plug-In . SVG Version: 6.00 Build 0)  -->
<svg version="1.1" id="Capa_1" xmlns="http://www.w3.org/2000/svg" xmlns:xlink="http://www.w3.org/1999/xlink" x="0px" y="0px"
	 viewBox="0 0 1186.776 1186.776" style="enable-background:new 0 0 1186.776 1186.776;" xml:space="preserve">
<g>
	<path d="M1186.247,416.406c-4.34-81.079-38.673-157.219-96.679-214.393c-58.691-57.855-135.254-89.715-215.583-89.715
		c-119.248,0-206.468,95.154-253.33,146.277c-9.864,10.765-20.836,22.737-26.796,27.503c-5.042-4.512-13.877-14.575-21.845-23.646
		c-46.069-52.472-131.819-150.134-259.212-150.134c-80.325,0-156.883,31.86-215.578,89.715
		C39.218,259.186,4.884,335.327,0.544,416.406C-2.21,467.939,5.47,515.83,24.031,562.808l3.374,8.677l159.65-0.205h0.53
		c15.937,0,31.179,5.348,40.785,14.536l111.521,106.68l80.583-237.174c6.538-19.238,23.405-31.865,43.022-32.141l0.845-0.017
		c19.113,0,35.976,12.127,42.957,30.89L618.88,754.311l94.684-298.145c6.124-19.281,22.659-32.227,42.134-32.981
		c19.707-0.789,36.898,10.739,44.547,29.623l54.226,133.754l70.771-98.073c10.196-14.101,27.352-23.209,44.78-23.209h215.772
		l0.595-12.491C1186.949,440.696,1186.902,428.683,1186.247,416.406z"/>
	<path d="M882.552,697.555c-10.119,13.997-27.262,21.822-43.97,19.797c-16.898-2.047-31.472-13.285-38.036-29.48l-38.238-94.278
		l-96.455,303.745c-6.21,19.561-22.983,32.519-42.647,32.993l-1.215,0.023c-19.522,0-36.049-11.839-43.125-30.905L465.875,595.416
		L402.9,780.743c-5.339,15.725-17.958,27.417-33.756,31.279c-15.708,3.844-32.502-0.78-44.401-12.178L176.359,657.811
		l-103.057,0.228l18.121,21.97c107.552,130.38,422.805,394.47,502.5,394.47c57.019,0,216.009-128.32,263.379-167.648
		c119.933-99.571,222.599-202.189,261.548-261.418c16.626-25.275,29.628-49.406,39.751-72.971l8.067-19.162H986.756L882.552,697.555
		z"/>
</g>
<g>
</g>
<g>
</g>
<g>
</g>
<g>
</g>
<g>
</g>
<g>
</g>
<g>
</g>
<g>
</g>
<g>
</g>
<g>
</g>
<g>
</g>
<g>
</g>
<g>
</g>
<g>
</g>
<g>
</g>
</svg>
