<svg height="512pt" viewBox="0 0 512.0018 512" width="512pt" xmlns="http://www.w3.org/2000/svg"><path d="m502 405.859375c-12.3125-3.160156-23.960938-9.53125-33.582031-19.152344-44.238281-44.238281-116.226563-44.238281-160.464844 0-28.648437 28.648438-75.257813 28.648438-103.902344 0-44.238281-44.238281-116.226562-44.238281-160.464843 0-9.621094 9.621094-21.269532 15.992188-33.582032 19.152344v40.824219c22.667969-3.691406 44.421875-14.25 61.863282-31.691406 28.644531-28.644532 75.253906-28.644532 103.898437 0 44.242187 44.242187 116.230469 44.238281 160.46875 0 28.644531-28.644532 75.253906-28.644532 103.898437 0 17.445313 17.445312 39.199219 28.003906 61.863282 31.691406v-40.824219zm0 0" fill="#b2f0bf"/><path d="m502 210.253906c-22.667969 3.691406-44.421875 14.25-61.863281 31.691406-28.648438 28.644532-75.253907 28.644532-103.902344 0-44.238281-44.242187-116.226563-44.238281-160.464844 0-28.648437 28.644532-75.253906 28.644532-103.902343 0-17.441407-17.441406-39.195313-28-61.863282-31.691406v40.824219c12.3125 3.160156 23.960938 9.53125 33.582032 19.152344 44.238281 44.238281 116.226562 44.238281 160.464843 0 28.648438-28.648438 75.257813-28.648438 103.902344 0 44.238281 44.238281 116.226563 44.238281 160.464844 0 9.621093-9.621094 21.269531-15.992188 33.582031-19.152344zm0 0" fill="#b2f0bf"/><path d="m502 116.332031c-12.3125-3.160156-23.960938-9.53125-33.582031-19.152343-44.238281-44.238282-116.226563-44.238282-160.464844 0-28.648437 28.648437-75.257813 28.648437-103.902344 0-44.238281-44.238282-116.226562-44.238282-160.464843 0-9.621094 9.621093-21.269532 15.992187-33.582032 19.152343v40.824219c22.667969-3.691406 44.421875-14.25 61.863282-31.691406 28.644531-28.644532 75.253906-28.644532 103.898437 0 44.242187 44.242187 116.230469 44.238281 160.46875 0 28.644531-28.644532 75.253906-28.644532 103.898437 0 17.445313 17.441406 39.199219 28 61.863282 31.691406v-40.824219zm0 0" fill="#b2f0bf"/><g fill="#36d28f"><path d="m103.667969 10h39.996093v253.429688h-39.996093zm0 0"/><path d="m103.667969 302.886719h39.996093v199.109375h-39.996093zm0 0"/><path d="m368 302.886719h39.996094v199.109375h-39.996094zm0 0"/><path d="m236.128906 153.960938h39.996094v253.425781h-39.996094zm0 0"/><path d="m236.128906 10h39.996094v108.664062h-39.996094zm0 0"/><path d="m236.128906 450.136719h39.996094v51.859375h-39.996094zm0 0"/><path d="m368 10h39.996094v253.429688h-39.996094zm0 0"/></g><path d="m103.671875 172c-2.640625 0-5.207031 1.066406-7.070313 2.929688-1.867187 1.859374-2.929687 4.441406-2.929687 7.070312s1.0625 5.210938 2.929687 7.066406c1.863282 1.863282 4.441407 2.933594 7.070313 2.933594 2.632813 0 5.199219-1.070312 7.070313-2.933594 1.859374-1.855468 2.929687-4.4375 2.929687-7.066406s-1.070313-5.210938-2.929687-7.070312c-1.859376-1.859376-4.4375-2.929688-7.070313-2.929688zm0 0"/><path d="m64.796875 118.394531c-15.402344 15.402344-34.90625 25.394531-56.398437 28.890625-5.453126.890625-9.152344 6.027344-8.265626 11.476563.800782 4.910156 5.042969 8.398437 9.859376 8.398437.53125 0 1.074218-.042968 1.617187-.132812 25.660156-4.175782 48.941406-16.101563 67.328125-34.488282 4.363281-4.363281 9.339844-8.054687 14.730469-10.964843v20.425781c0 5.523438 4.480469 10 10 10 5.523437 0 10-4.476562 10-10v-75.945312c0-.011719 0-.023438 0-.035157v-56.019531c0-5.519531-4.476563-10-10-10-5.519531 0-10 4.480469-10 10v47.722656c-21.628907 5.402344-41.253907 16.488282-57.15625 32.386719-8.007813 8.007813-18.03125 13.726563-28.992188 16.539063-5.351562 1.371093-8.574219 6.820312-7.203125 12.167968 1.160156 4.519532 5.222656 7.519532 9.679688 7.519532.824218 0 1.660156-.101563 2.492187-.316407 14.429688-3.699219 27.628907-11.226562 38.167969-21.765625 12.117188-12.117187 26.816406-20.902344 43.015625-25.796875v21.136719c-10.78125 4.171875-20.65625 10.582031-28.875 18.800781zm0 0"/><path d="m408 491.996094c-2.628906 0-5.210938 1.070312-7.070312 2.929687-1.859376 1.859375-2.929688 4.441407-2.929688 7.070313s1.070312 5.210937 2.929688 7.070312c1.859374 1.859375 4.441406 2.929688 7.070312 2.929688s5.210938-1.070313 7.070312-2.929688c1.859376-1.859375 2.929688-4.441406 2.929688-7.070312s-1.070312-5.210938-2.929688-7.070313c-1.859374-1.859375-4.441406-2.929687-7.070312-2.929687zm0 0"/><path d="m503.605469 436.8125c-21.496094-3.496094-40.996094-13.488281-56.398438-28.890625-8.308593-8.308594-18.292969-14.761719-29.207031-18.929687v-21.113282c16.328125 4.875 31.144531 13.695313 43.347656 25.898438 10.539063 10.539062 23.738282 18.066406 38.167969 21.769531.832031.214844 1.667969.316406 2.492187.316406 4.457032 0 8.519532-3.003906 9.679688-7.519531 1.371094-5.351562-1.855469-10.796875-7.203125-12.171875-10.960937-2.8125-20.988281-8.527344-28.992187-16.535156-15.988282-15.984375-35.730469-27.097657-57.492188-32.46875v-37.390625c21.082031-5.210938 41.046875-16.035156 57.488281-32.476563 8.007813-8.007812 18.03125-13.722656 28.996094-16.535156 5.347656-1.375 8.574219-6.820313 7.199219-12.171875-1.371094-5.351562-6.820313-8.574219-12.167969-7.203125-14.433594 3.703125-27.632813 11.230469-38.167969 21.769531-40.34375 40.339844-105.984375 40.339844-146.324218 0-8.25-8.25-18.1875-14.683594-29.023438-18.855468v-21.113282c16.257812 4.890625 31.035156 13.695313 43.164062 25.824219 16.273438 16.273437 37.644532 24.410156 59.019532 24.410156s42.75-8.140625 59.023437-24.410156c15.402344-15.402344 34.902344-25.394531 56.398438-28.890625 5.449219-.886719 9.148437-6.023438 8.261719-11.476562-.886719-5.449219-6.015626-9.152344-11.476563-8.261719-25.660156 4.175781-48.941406 16.101562-67.328125 34.488281-4.558594 4.558594-9.644531 8.269531-15.0625 11.148438v-124.625c5.519531 2.933593 10.609375 6.683593 15.0625 11.140624 18.390625 18.386719 41.671875 30.3125 67.328125 34.484376.542969.089843 1.085937.132812 1.617187.132812 4.816407 0 9.0625-3.488281 9.859376-8.394531.886718-5.453125-2.8125-10.589844-8.265626-11.476563-21.492187-3.496094-40.996093-13.488281-56.398437-28.890625-8.308594-8.308593-18.292969-14.761719-29.207031-18.929687v-21.113282c16.328125 4.875 31.144531 13.695313 43.347656 25.898438 10.539062 10.539062 23.738281 18.066406 38.167969 21.769531.835937.214844 1.671875.316407 2.492187.316407 4.457032 0 8.519532-3.003907 9.679688-7.519532 1.371094-5.347656-1.851563-10.796875-7.199219-12.171875-10.964844-2.8125-20.992187-8.53125-28.996094-16.535156-15.984375-15.984375-35.726562-27.097656-57.488281-32.46875v-47.640625c0-5.519531-4.480469-10-10-10-5.523438 0-10 4.480469-10 10v242.664062c-6.625 1.027344-13.378906 1.003907-20-.066406v-186.308594c.015625-.308593.011719-.617187 0-.929687v-55.359375c0-5.519531-4.480469-10-10-10-5.523438 0-10 4.480469-10 10v47.734375c-21.617188 5.40625-41.230469 16.488281-57.121094 32.375-4.457031 4.460937-9.46875 8.167969-14.878906 11.074219v-91.183594c0-5.519531-4.476562-10-10-10s-10 4.480469-10 10v97.878906c-3.277344.515625-6.617188.785156-10 .785156s-6.722656-.269531-10-.785156v-97.878906c0-5.519531-4.476562-10-10-10-5.519531 0-10 4.480469-10 10v91.179688c-5.410156-2.902344-10.421875-6.613282-14.878906-11.070313-15.976563-15.976563-35.703125-27.085937-57.453125-32.460937v-47.648438c0-5.519531-4.476563-10-10-10-5.519531 0-10 4.480469-10 10v55.886719.171875 186.597656c-6.625 1.03125-13.378907 1.015625-20-.050781v-30.605469c0-5.523438-4.476563-10-10-10-5.519531 0-10 4.476562-10 10v23.835938c-5.289063-2.851563-10.265625-6.5-14.730469-10.964844-18.386719-18.386719-41.667969-30.3125-67.328125-34.488282-5.445313-.882812-10.589844 2.8125-11.476563 8.265626-.886718 5.449218 2.8125 10.589843 8.265626 11.476562 21.492187 3.5 40.996093 13.488281 56.398437 28.890625 16.273437 16.273437 37.644531 24.410156 59.019531 24.410156 21.371094 0 42.75-8.140625 59.019532-24.410156 12.15625-12.15625 26.910156-20.957031 43.164062-25.84375v21.125c-10.839844 4.171875-20.761719 10.601563-29.023438 18.863281-40.339843 40.339844-105.980468 40.339844-146.320312 0-10.539062-10.539062-23.738281-18.066406-38.167969-21.769531-5.351562-1.375-10.800781 1.851563-12.171875 7.203125s1.851563 10.796875 7.203125 12.171875c10.960938 2.8125 20.984375 8.527344 28.992188 16.535156 16.355469 16.355469 36.199219 27.148438 57.15625 32.390625v37.558594c-21.628907 5.40625-41.257813 16.488281-57.15625 32.386719-8.007813 8.007812-18.03125 13.722656-28.992188 16.535156-5.351562 1.375-8.574219 6.820313-7.203125 12.171875 1.160156 4.515625 5.222656 7.519531 9.679688 7.519531.820312 0 1.65625-.101562 2.492187-.316406 14.429688-3.703125 27.628907-11.230469 38.167969-21.765625 12.117188-12.117188 26.816406-20.902344 43.011719-25.796875v21.136719c-10.78125 4.171875-20.652344 10.582031-28.871094 18.800781-15.402344 15.402344-34.90625 25.394531-56.398437 28.890625-5.453126.886719-9.152344 6.023438-8.265626 11.476562.800782 4.90625 5.042969 8.394532 9.859376 8.394532.53125 0 1.074218-.042969 1.617187-.128906 25.660156-4.175782 48.941406-16.101563 67.328125-34.488282 4.363281-4.367187 9.339844-8.054687 14.730469-10.964844v90.894532c0 5.523437 4.480469 10 10 10 5.523437 0 10-4.476563 10-10v-146.414063c0-.011719 0-.023437 0-.035156v-42.5625c3.375.277344 6.761719.421875 10.148437.421875 3.285156 0 6.570313-.136719 9.851563-.398438v42.40625.171876 146.410156c0 5.523437 4.480469 10 10 10 5.523437 0 10-4.476563 10-10v-91.050782c5.503906 2.933594 10.582031 6.675782 15.027343 11.121094 16.054688 16.054688 35.78125 27.136719 57.304688 32.46875v47.460938c0 5.523437 4.480469 10 10 10 5.523438 0 10-4.476563 10-10v-44.222656c3.308594.261718 6.644531.402343 10 .402343s6.691406-.140625 10-.402343v44.226562c0 5.519531 4.476562 10 10 10s10-4.480469 10-10v-47.464844c21.523438-5.335937 41.25-16.414062 57.304688-32.46875 4.351562-4.351562 9.316406-8.035156 14.695312-10.941406v90.875c0 5.519531 4.476562 10 10 10 5.519531 0 10-4.480469 10-10v-146.183594c.015625-.308594.011719-.617187 0-.933594v-41.902343c3.386719.277343 6.785156.425781 10.183594.425781 3.277344 0 6.550781-.136719 9.816406-.394531l.003906 148.984375c0 5.523437 4.476563 10 10 10 5.523438 0 10-4.476563 10-10l-.003906-51.070313c5.519531 2.9375 10.609375 6.683594 15.066406 11.140625 18.386719 18.386719 41.667969 30.3125 67.328125 34.488282.542969.085937 1.082031.128906 1.617188.128906 4.8125 0 9.058593-3.484375 9.855469-8.394532.890624-5.449218-2.808594-10.585937-8.261719-11.476562zm-247.605469-38.621094c-3.382812 0-6.71875-.269531-10-.785156v-229.175781c3.328125.269531 6.664062.410156 10 .410156s6.671875-.140625 10-.410156v229.175781c-3.277344.515625-6.613281.785156-10 .785156zm87.304688-163.320312c-15.898438-15.898438-35.617188-27.019532-57.304688-32.417969v-37.488281c21.015625-5.226563 40.910156-16.035156 57.304688-32.425782 4.351562-4.351562 9.316406-8.035156 14.695312-10.941406v124.21875c-5.277344-2.851562-10.238281-6.488281-14.695312-10.945312zm-146.324219-130.621094c15.742187 15.746094 36.703125 24.414062 59.019531 24.414062h.003906c22.3125 0 43.277344-8.667968 59.019532-24.410156 12.105468-12.109375 26.792968-20.890625 42.976562-25.785156v21.144531c-10.765625 4.171875-20.628906 10.574219-28.835938 18.78125-40.34375 40.34375-105.980468 40.34375-146.324218.003907-8.300782-8.300782-18.273438-14.75-29.171875-18.917969v-21.117188c16.316406 4.875 31.117187 13.695313 43.3125 25.886719zm-28.28125 130.625c-4.550781 4.546875-9.625 8.25-15.027344 11.128906v-124.589844c5.503906 2.9375 10.582031 6.679688 15.027344 11.125 16.394531 16.394532 36.289062 27.199219 57.304687 32.425782v37.484375c-21.691406 5.390625-41.367187 16.488281-57.304687 32.425781zm42.421875 42.425781c4.40625-4.40625 9.433594-8.121093 14.882812-11.042969v124.449219c-5.410156-2.902343-10.421875-6.613281-14.882812-11.070312-15.972656-15.976563-35.703125-27.085938-57.449219-32.460938v-37.410156c21.066406-5.214844 41.015625-16.03125 57.449219-32.464844zm118.042968 130.621094c-40.34375 40.34375-105.984374 40.34375-146.324218 0-8.296875-8.300781-18.273438-14.746094-29.167969-18.914063v-21.117187c16.3125 4.875 31.113281 13.695313 43.308594 25.886719 15.746093 15.742187 36.707031 24.414062 59.023437 24.414062s43.277344-8.671875 59.019532-24.414062c12.109374-12.105469 26.796874-20.886719 42.976562-25.785156v21.144531c-10.761719 4.171875-20.628906 10.578125-28.835938 18.785156zm28.835938-60.660156c-21.617188 5.40625-41.230469 16.488281-57.117188 32.375-4.460937 4.460937-9.472656 8.167969-14.882812 11.074219v-124.449219c5.449219 2.921875 10.480469 6.640625 14.882812 11.039062 16.34375 16.347657 36.171876 27.136719 57.117188 32.378907zm0 0"/></svg>