<svg id="Capa_1" enable-background="new 0 0 512 512" height="512" viewBox="0 0 512 512" width="512" xmlns="http://www.w3.org/2000/svg"><g><path d="m446.605 125.395-60-60c-2.929-2.93-6.767-4.395-10.605-4.395s-7.676 1.465-10.605 4.395l-60 60c-5.859 5.859-5.859 15.352 0 21.211s15.352 5.859 21.211 0l34.394-34.395v143.789c0 8.291 6.709 15 15 15s15-6.709 15-15v-143.789l34.395 34.395c5.859 5.859 15.352 5.859 21.211 0s5.859-15.352-.001-21.211z" fill="#ccb3ff"/><path d="m391 256v-143.789l34.395 34.395c5.859 5.859 15.352 5.859 21.211 0s5.859-15.352 0-21.211l-60-60c-2.93-2.93-6.768-4.395-10.606-4.395v210c8.291 0 15-6.709 15-15z" fill="#aa80ff"/><path d="m196 361h-45v-105c0-8.291-6.709-15-15-15s-15 6.709-15 15v105h-45c-8.291 0-15 6.709-15 15s6.709 15 15 15h45v45c0 8.291 6.709 15 15 15s15-6.709 15-15v-45h45c8.291 0 15-6.709 15-15s-6.709-15-15-15z" fill="#f9f"/><path d="m151 436v-45h45c8.291 0 15-6.709 15-15s-6.709-15-15-15h-45v-105c0-8.291-6.709-15-15-15v210c8.291 0 15-6.709 15-15z" fill="#e666ff"/><path d="m136 0c-74.443 0-136 61.557-136 136s61.557 135 136 135 135-60.557 135-135-60.557-136-135-136zm0 241c-57.891 0-106-47.109-106-105s48.109-106 106-106 105 48.109 105 106-47.109 105-105 105z" fill="#f9f"/><path d="m271 136c0-74.443-60.557-136-135-136v30c57.891 0 105 48.109 105 106s-47.109 105-105 105v30c74.443 0 135-60.557 135-135z" fill="#e666ff"/><path d="m376 241c-74.443 0-135 60.557-135 135s60.557 136 135 136 136-61.557 136-136-61.557-135-136-135zm0 241c-57.891 0-105-48.109-105-106s47.109-105 105-105 106 47.109 106 105-48.109 106-106 106z" fill="#ccb3ff"/><path d="m512 376c0-74.443-61.557-135-136-135v30c57.891 0 106 47.109 106 105s-48.109 106-106 106v30c74.443 0 136-61.557 136-136z" fill="#aa80ff"/></g></svg>