<?xml version="1.0" encoding="iso-8859-1"?>
<!-- Generator: Adobe Illustrator 19.0.0, SVG Export Plug-In . SVG Version: 6.00 Build 0)  -->
<svg version="1.1" id="Capa_1" xmlns="http://www.w3.org/2000/svg" xmlns:xlink="http://www.w3.org/1999/xlink" x="0px" y="0px"
	 viewBox="0 0 512 512" style="enable-background:new 0 0 512 512;" xml:space="preserve">
<g>
	<g>
		<g>
			<path d="M342.007,472H104.283C60.605,411.464,40,332.55,40,256c0-76.515,20.59-155.443,64.283-216h237.725
				c11.046,0,20-8.954,20-20s-8.954-20-20-20H94.269c-6.185,0-12.022,2.861-15.81,7.75C25.318,76.329,0,167.124,0,256
				c0,88.866,25.315,179.667,78.459,248.25c3.788,4.889,9.625,7.75,15.81,7.75h247.739c11.046,0,20-8.954,20-20
				C362.008,480.954,353.053,472,342.007,472z"/>
			<path d="M506.199,241.908c-0.016-0.016-0.029-0.034-0.045-0.05l-77.372-77.37c-7.811-7.811-20.475-7.811-28.286,0
				c-7.811,7.811-7.811,20.474,0,28.284L443.725,236H192.004c-11.046,0-20,8.954-20,20s8.954,20,20,20h251.721l-43.229,43.228
				c-7.811,7.811-7.811,20.474,0,28.284c7.81,7.81,20.475,7.811,28.286,0l77.372-77.37
				C514.138,262.157,513.743,249.503,506.199,241.908z"/>
		</g>
	</g>
</g>
<g>
</g>
<g>
</g>
<g>
</g>
<g>
</g>
<g>
</g>
<g>
</g>
<g>
</g>
<g>
</g>
<g>
</g>
<g>
</g>
<g>
</g>
<g>
</g>
<g>
</g>
<g>
</g>
<g>
</g>
</svg>
