<svg id="Layer_1" enable-background="new 0 0 512.004 512.004" height="512" viewBox="0 0 512.004 512.004" width="512" xmlns="http://www.w3.org/2000/svg"><g id="XMLID_1968_"><path id="XMLID_1118_" d="m485.981 10-240.435 240.435-156.559-112.498 127.933-127.933z" fill="#f2b394"/><g id="XMLID_1115_"><path id="XMLID_1116_" d="m448.916 502.004h-102.098c-24.918 0-48.825-9.854-66.505-27.414l-246.808-245.12c-9.939-9.871-9.98-25.936-.092-35.858l30.3-30.402 258.035 267.207c9.619 9.961 22.873 15.587 36.721 15.587h115.779v30.667c.001 13.991-11.341 25.333-25.332 25.333z" fill="#fff"/></g><path id="XMLID_1086_" d="m474.249 446.004h-115.779c-13.848 0-27.101-5.626-36.721-15.587l-258.035-267.207 101.37-101.371c10.137 10.137 15.831 23.885 15.831 38.22v14.519c0 16.441 6.774 32.156 18.727 43.445 11.093 10.477 25.773 16.313 41.032 16.313h88.908l19.152 129.278c3.016 20.356 16.305 37.723 35.165 45.954l38.109 16.633c31.73 13.851 52.241 45.182 52.241 79.803z" fill="#ff5c7d"/><g id="XMLID_977_"><path id="XMLID_1057_" d="m493.052 2.929c-3.904-3.905-10.237-3.905-14.142 0l-161.409 161.409h-76.827c-12.757 0-24.891-4.824-34.166-13.583-9.91-9.359-15.593-22.544-15.593-36.175v-14.52c0-13.727-4.298-26.789-12.242-37.667l45.317-45.317c3.905-3.905 3.905-10.237 0-14.143-3.905-3.905-10.237-3.905-14.143 0l-183.517 183.62c-6.67 6.693-10.331 15.583-10.307 25.033s3.73 18.321 10.435 24.979l246.808 245.12c19.686 19.551 45.807 30.318 73.552 30.318h102.098c19.483 0 35.333-15.851 35.333-35.333v-30.667c0-38.603-22.861-73.524-58.24-88.966l-38.109-16.632c-15.803-6.897-26.746-21.198-29.273-38.254l-19.152-129.278c-.092-.618-.239-1.215-.435-1.788l154.012-154.014c3.905-3.905 3.905-10.237 0-14.142zm-113.153 355.806 38.109 16.633c24.996 10.91 42.11 34.071 45.579 60.636h-105.117c-11.073 0-21.835-4.568-29.528-12.534l-86.73-89.813c-3.837-3.974-10.168-4.083-14.14-.247-3.973 3.836-4.083 10.167-.247 14.14l86.73 89.813c11.44 11.846 27.446 18.641 43.915 18.641h105.779v20.667c0 8.455-6.878 15.333-15.333 15.333h-102.098c-22.428 0-43.544-8.704-59.458-24.509l-246.808-245.12c-2.91-2.89-4.518-6.74-4.528-10.84-.011-4.101 1.578-7.958 4.473-10.863l23.104-23.183 101.719 105.334c3.837 3.972 10.167 4.083 14.14.247s4.083-10.167.247-14.14l-101.974-105.597 86.55-86.55c4.321 6.917 6.633 14.919 6.633 23.277v14.519c0 19.109 7.968 37.594 21.861 50.715 13.002 12.28 30.013 19.043 47.898 19.043h80.28l4.395 29.667h-50.768c-5.523 0-10 4.477-10 10s4.477 10 10 10h53.73l4.395 29.667h-46.125c-5.523 0-10 4.477-10 10s4.477 10 10 10h49.088l3.172 21.41c.416 2.81 1.001 5.564 1.735 8.257h-43.496c-5.523 0-10 4.477-10 10s4.477 10 10 10h52.529c7.28 11.025 17.679 19.893 30.289 25.397z"/><path id="XMLID_1059_" d="m203.762 298.242c-2.63 0-5.21 1.07-7.07 2.93s-2.93 4.44-2.93 7.07 1.07 5.21 2.93 7.07 4.44 2.93 7.07 2.93c2.64 0 5.21-1.07 7.07-2.93 1.87-1.86 2.93-4.44 2.93-7.07s-1.06-5.21-2.93-7.07c-1.86-1.86-4.43-2.93-7.07-2.93z"/></g></g></svg>