<?xml version="1.0" encoding="iso-8859-1"?>
<!-- Generator: Adobe Illustrator 19.0.0, SVG Export Plug-In . SVG Version: 6.00 Build 0)  -->
<svg version="1.1" id="Capa_1" xmlns="http://www.w3.org/2000/svg" xmlns:xlink="http://www.w3.org/1999/xlink" x="0px" y="0px"
	 viewBox="0 0 512.002 512.002" style="enable-background:new 0 0 512.002 512.002;" xml:space="preserve">
<circle style="fill:#F7F0E6;" cx="255.999" cy="255.96" r="248.46"/>
<circle style="fill:#EEE2D4;" cx="255.999" cy="255.96" r="222.76"/>
<circle style="fill:#D78255;" cx="255.999" cy="255.96" r="197.06"/>
<circle style="fill:#FF915A;" cx="255.999" cy="255.96" r="171.35"/>
<g>
	<circle style="fill:#FFA069;" cx="285.269" cy="307.55" r="55.23"/>
	<circle style="fill:#FFA069;" cx="303.839" cy="179.75" r="35.436"/>
	<circle style="fill:#FFA069;" cx="178.119" cy="305.58" r="28.595"/>
	<circle style="fill:#FFA069;" cx="372.319" cy="237.31" r="23.329"/>
</g>
<path style="fill:#EEE2D4;" d="M147.567,208.85c0.478,2.009,1.187,5.062,4.032,8.19c11.411-30.537,35.779-54.663,66.475-65.746
	c-2.384-1.851-5.339-2.925-9.339-3.611c-2.052-0.352-4.034-0.838-6.02-1.074c-22.298-2.65-43.408-11.418-59.286-27.296
	L36.636,12.522c-7.352-7.362-19.755-6.627-26.099,2.204c-4.984,6.936-3.498,16.659,2.541,22.699l106.119,106.119
	c15.878,15.878,24.646,36.988,27.296,59.286C146.73,204.816,147.085,206.824,147.567,208.85z"/>
<path d="M436.992,75.047C388.647,26.702,324.37,0.077,256,0.077c-59.431,0-117.011,20.702-162.734,58.391L42.019,7.221
	c-5.117-5.123-12.191-7.729-19.422-7.139C15.377,0.668,8.789,4.41,4.522,10.35c-6.923,9.637-5.492,23.557,3.33,32.378l50.577,50.577
	C20.732,139.038,0.039,196.574,0.039,256.04c0,68.37,26.625,132.647,74.97,180.992s112.622,74.97,180.992,74.97
	s132.647-26.624,180.992-74.97c48.345-48.345,74.97-112.622,74.97-180.992S485.337,123.392,436.992,75.047z M16.704,19.101
	c1.718-2.391,4.241-3.836,7.105-4.068c2.831-0.23,5.598,0.787,7.6,2.792l99.892,99.892c17.916,17.916,41.49,29.379,68.59,33.501
	c-20.669,11.073-37.655,28.044-48.717,48.684c-4.126-27.089-15.587-50.652-33.497-68.561l-99.219-99.22
	C14.833,28.497,14.063,22.778,16.704,19.101z M426.385,426.425c-45.512,45.512-106.022,70.576-170.386,70.576
	s-124.874-25.064-170.386-70.576S15.038,320.403,15.038,256.039c0-55.497,19.152-109.202,54.055-152.07l25.886,25.886
	c-59.622,75.872-58.051,183.463,4.383,257.678c1.483,1.764,3.606,2.672,5.743,2.672c1.704,0,3.418-0.578,4.824-1.761
	c3.17-2.667,3.578-7.398,0.911-10.567c-57.461-68.303-59.277-167.11-5.166-237.326l1.396,1.396
	c17.437,17.437,27.919,41.194,30.313,68.703c0.186,2.142,0.476,4.312,0.861,6.453c0.587,3.262,1.438,6.513,2.524,9.667
	c-0.445,1.76-0.866,3.53-1.232,5.32c-0.831,4.058,1.786,8.021,5.844,8.851c0.507,0.104,1.013,0.154,1.511,0.154
	c3.488,0,6.613-2.447,7.34-5.998c8.172-39.936,39.158-71.503,78.94-80.421c4.042-0.906,6.584-4.917,5.678-8.959
	s-4.918-6.587-8.959-5.678c-1.067,0.239-2.122,0.507-3.177,0.774c-3.155-1.084-6.387-1.941-9.649-2.528
	c-2.14-0.385-4.312-0.675-6.453-0.861c-27.509-2.394-51.266-12.875-68.703-30.312l-1.396-1.396
	c70.216-54.111,169.022-52.295,237.326,5.166c1.406,1.183,3.12,1.761,4.824,1.761c2.137,0,4.26-0.909,5.743-2.672
	c2.667-3.169,2.259-7.901-0.911-10.567c-74.215-62.435-181.805-64.006-257.678-4.383l-25.89-25.89
	C146.785,34.234,200.534,15.08,256,15.08c64.363,0,124.874,25.064,170.386,70.576s70.576,106.022,70.576,170.386
	S471.897,380.913,426.385,426.425z"/>
<path d="M412.637,124.546c-2.666-3.17-7.398-3.578-10.567-0.911c-3.17,2.667-3.578,7.398-0.911,10.567
	c30.423,36.164,46.126,82.182,44.217,129.58c-1.921,47.677-21.574,92.529-55.339,126.294s-78.617,53.418-126.294,55.339
	c-47.391,1.91-93.416-13.793-129.58-44.216c-3.169-2.666-7.9-2.258-10.567,0.911s-2.259,7.901,0.911,10.567
	c36.908,31.049,83.319,47.894,131.501,47.894c2.774,0,5.554-0.056,8.339-0.168c51.454-2.073,99.859-23.282,136.297-59.72
	s57.647-84.843,59.721-136.297C462.424,213.242,445.475,163.579,412.637,124.546z"/>
<path d="M268.141,398.406c0.995,0,2.007-0.199,2.978-0.62c3.801-1.647,5.547-6.063,3.9-9.864l-9.282-21.419
	c-1.647-3.801-6.064-5.546-9.864-3.9c-3.801,1.647-5.547,6.063-3.9,9.864l9.282,21.419
	C262.482,396.715,265.242,398.406,268.141,398.406z"/>
<path d="M283.064,356.401l18.563,7.854c0.954,0.404,1.944,0.595,2.919,0.595c2.922,0,5.7-1.719,6.911-4.58
	c1.614-3.815-0.17-8.216-3.985-9.83l-18.563-7.854c-3.815-1.614-8.215,0.17-9.83,3.985
	C277.465,350.386,279.25,354.787,283.064,356.401z"/>
<path d="M254.27,305.011l-3.57,28.559c-0.514,4.11,2.401,7.858,6.512,8.372c0.316,0.04,0.629,0.059,0.939,0.059
	c3.728,0,6.958-2.776,7.433-6.571l3.57-28.559c0.514-4.11-2.401-7.858-6.512-8.372C258.53,297.985,254.783,300.901,254.27,305.011z"
	/>
<path d="M285.277,329.149c1.662,0,3.335-0.549,4.725-1.679l11.423-9.282c3.215-2.612,3.703-7.335,1.091-10.55
	s-7.336-3.703-10.55-1.091l-11.423,9.282c-3.215,2.612-3.703,7.335-1.091,10.55C280.934,328.203,283.096,329.149,285.277,329.149z"
	/>
<path d="M337.394,362.707c0.915,0,1.845-0.168,2.747-0.524c3.854-1.518,5.747-5.873,4.229-9.727l-9.282-23.561
	c-1.518-3.854-5.873-5.748-9.727-4.229c-3.854,1.518-5.747,5.873-4.229,9.727l9.282,23.561
	C331.577,360.906,334.403,362.707,337.394,362.707z"/>
<path d="M322.339,274.568l-4.998,17.135c-1.16,3.977,1.124,8.14,5.1,9.3c0.701,0.205,1.408,0.302,2.104,0.302
	c3.248,0,6.241-2.127,7.197-5.402l4.998-17.135c1.16-3.977-1.124-8.14-5.1-9.3C327.666,268.309,323.499,270.592,322.339,274.568z"/>
<path d="M295.17,289.311c1.443,1.336,3.271,1.997,5.094,1.997c2.017,0,4.027-0.809,5.505-2.404c2.814-3.04,2.631-7.785-0.408-10.599
	l-19.277-17.849c-3.041-2.814-7.785-2.63-10.599,0.408c-2.814,3.04-2.631,7.785,0.408,10.599L295.17,289.311z"/>
<path d="M242.967,272.671l-15.708,14.993c-2.996,2.86-3.106,7.607-0.247,10.604c1.474,1.543,3.448,2.321,5.426,2.321
	c1.861,0,3.725-0.688,5.178-2.075l15.708-14.993c2.996-2.86,3.106-7.607,0.247-10.604
	C250.711,269.922,245.964,269.811,242.967,272.671z"/>
<path d="M218.885,353.115c0.711,0.211,1.428,0.311,2.133,0.311c3.236,0,6.222-2.111,7.188-5.372l5.711-19.277
	c1.177-3.971-1.089-8.145-5.061-9.321c-3.971-1.177-8.145,1.089-9.321,5.061l-5.711,19.277
	C212.648,347.765,214.913,351.938,218.885,353.115z"/>
<path d="M206.308,387.682l24.989,1.428c0.146,0.008,0.29,0.012,0.435,0.012c3.946,0,7.253-3.083,7.481-7.072
	c0.236-4.135-2.925-7.679-7.06-7.916l-24.989-1.428c-4.134-0.236-7.679,2.924-7.916,7.06
	C199.011,383.902,202.173,387.446,206.308,387.682z"/>
<path d="M297.51,394.697l16.421,8.568c1.108,0.578,2.294,0.852,3.463,0.852c2.705,0,5.318-1.468,6.656-4.032
	c1.916-3.672,0.492-8.203-3.18-10.119l-16.421-8.568c-3.672-1.917-8.203-0.493-10.119,3.18
	C292.414,388.251,293.838,392.781,297.51,394.697z"/>
<path d="M366.888,368.882c0.643,0.17,1.289,0.251,1.924,0.251c3.32,0,6.356-2.222,7.246-5.583l6.426-24.275
	c1.06-4.004-1.327-8.109-5.332-9.169c-4.005-1.059-8.11,1.327-9.169,5.332l-6.426,24.275
	C360.497,363.716,362.884,367.822,366.888,368.882z"/>
<path d="M374.7,301.371c2.996-2.86,3.106-7.607,0.247-10.604c-2.86-2.996-7.607-3.107-10.604-0.247l-15.708,14.993
	c-2.996,2.86-3.106,7.607-0.247,10.604c1.474,1.543,3.448,2.321,5.426,2.321c1.861,0,3.725-0.688,5.178-2.075L374.7,301.371z"/>
<path d="M404.691,283.932l-12.852,19.277c-2.298,3.446-1.367,8.103,2.08,10.4c1.279,0.853,2.724,1.261,4.153,1.261
	c2.423,0,4.802-1.173,6.247-3.341l12.852-19.277c2.298-3.446,1.367-8.103-2.08-10.4
	C411.645,279.555,406.989,280.485,404.691,283.932z"/>
<path d="M358.819,272.032c3.921,0,7.221-3.049,7.477-7.018l1.428-22.133c0.267-4.134-2.868-7.701-7.001-7.967
	c-4.136-0.271-7.701,2.868-7.967,7.001l-1.428,22.133c-0.267,4.134,2.868,7.701,7.001,7.967
	C358.493,272.026,358.656,272.032,358.819,272.032z"/>
<path d="M403.111,228.794c-3.963-1.201-8.151,1.038-9.353,5.003l-7.14,23.561c-1.201,3.964,1.039,8.151,5.003,9.353
	c0.725,0.22,1.457,0.324,2.178,0.324c3.218,0,6.193-2.088,7.175-5.327l7.14-23.561C409.315,234.183,407.075,229.995,403.111,228.794
	z"/>
<path d="M354.111,222.755l25.703,1.428c0.142,0.008,0.283,0.012,0.423,0.012c3.952,0,7.26-3.09,7.481-7.084
	c0.23-4.136-2.937-7.675-7.072-7.904l-25.703-1.428c-4.136-0.222-7.675,2.937-7.904,7.072
	C346.809,218.987,349.976,222.526,354.111,222.755z"/>
<path d="M304.122,217.942c-2.86,2.997-2.75,7.744,0.247,10.604l15.708,14.994c1.453,1.386,3.316,2.075,5.178,2.075
	c1.978,0,3.953-0.778,5.426-2.321c2.86-2.997,2.75-7.744-0.247-10.604l-15.708-14.994
	C311.73,214.836,306.983,214.945,304.122,217.942z"/>
<path d="M297.883,235.367l-17.849-11.424c-3.487-2.231-8.126-1.216-10.36,2.274c-2.233,3.489-1.215,8.127,2.274,10.36l17.849,11.424
	c1.252,0.801,2.652,1.184,4.036,1.184c2.472,0,4.892-1.221,6.324-3.458C302.39,242.238,301.372,237.6,297.883,235.367z"/>
<path d="M241.569,238.742l-19.991,11.423c-3.596,2.055-4.846,6.636-2.791,10.233c1.384,2.422,3.915,3.78,6.519,3.78
	c1.262,0,2.541-0.319,3.714-0.99l19.991-11.423c3.596-2.055,4.846-6.636,2.791-10.233
	C249.746,237.935,245.165,236.687,241.569,238.742z"/>
<path d="M227.685,419.354l24.989,9.281c0.861,0.32,1.743,0.471,2.61,0.471c3.045,0,5.909-1.869,7.032-4.891
	c1.442-3.883-0.537-8.2-4.419-9.642l-24.989-9.281c-3.882-1.443-8.2,0.536-9.642,4.419
	C221.823,413.595,223.802,417.912,227.685,419.354z"/>
<path d="M325.962,207.061c0.539,0,1.086-0.059,1.634-0.18c4.043-0.898,6.593-4.905,5.694-8.948l-4.284-19.277
	c-0.899-4.043-4.903-6.59-8.948-5.694c-4.043,0.898-6.593,4.905-5.694,8.948l4.284,19.277
	C319.424,204.682,322.524,207.061,325.962,207.061z"/>
<path d="M355.078,191.268c0.808,3.461,3.89,5.797,7.297,5.797c0.564,0,1.138-0.064,1.71-0.198c4.034-0.941,6.541-4.974,5.6-9.008
	l-4.998-21.419c-0.941-4.034-4.975-6.542-9.008-5.6c-4.034,0.941-6.541,4.974-5.6,9.008L355.078,191.268z"/>
<path d="M393.627,195.992c1.358,2.507,3.938,3.929,6.602,3.929c1.206,0,2.43-0.292,3.565-0.907
	c3.642-1.973,4.995-6.525,3.022-10.167l-9.282-17.135c-1.973-3.642-6.524-4.995-10.167-3.022c-3.642,1.973-4.995,6.525-3.022,10.167
	L393.627,195.992z"/>
<path d="M301.757,189.615c-1.155-3.978-5.316-6.265-9.294-5.111l-22.133,6.426c-3.978,1.155-6.266,5.316-5.111,9.294
	c0.952,3.279,3.948,5.411,7.199,5.411c0.692,0,1.396-0.097,2.095-0.299l22.133-6.426
	C300.623,197.754,302.911,193.593,301.757,189.615z"/>
<path d="M322.465,158.639c1.291,0.878,2.758,1.299,4.21,1.299c2.399,0,4.758-1.149,6.209-3.283l12.137-17.849
	c2.33-3.425,1.441-8.09-1.984-10.419c-3.424-2.33-8.09-1.441-10.419,1.984l-12.137,17.849
	C318.152,151.645,319.04,156.31,322.465,158.639z"/>
<path d="M298.386,152.042l-24.989-11.423c-3.767-1.722-8.217-0.065-9.939,3.703c-1.722,3.767-0.064,8.217,3.703,9.939l24.989,11.423
	c1.011,0.462,2.07,0.681,3.114,0.681c2.845,0,5.565-1.627,6.826-4.384C303.811,158.214,302.153,153.764,298.386,152.042z"/>
<path d="M220.446,93.491c-2.588-3.236-7.307-3.76-10.542-1.171c-3.234,2.587-3.759,7.307-1.171,10.542l11.423,14.279
	c1.481,1.852,3.661,2.815,5.861,2.815c1.643,0,3.297-0.538,4.68-1.644c3.234-2.587,3.759-7.307,1.171-10.542L220.446,93.491z"/>
<path d="M255.29,112.815c1.678,0,3.367-0.561,4.764-1.71l12.137-9.996c3.197-2.633,3.655-7.36,1.021-10.558
	c-2.633-3.196-7.359-3.654-10.558-1.021l-12.137,9.996c-3.197,2.633-3.655,7.36-1.021,10.558
	C250.979,111.884,253.126,112.815,255.29,112.815z"/>
<path d="M296.697,129.951c1.858,0,3.72-0.686,5.171-2.069l14.994-14.279c3-2.856,3.115-7.604,0.259-10.604
	c-2.857-3-7.604-3.116-10.604-0.259l-14.994,14.279c-3,2.856-3.115,7.604-0.259,10.604
	C292.739,129.171,294.716,129.951,296.697,129.951z"/>
<path d="M237.352,207.619c0.51,0.105,1.019,0.156,1.52,0.156c3.484,0,6.608-2.442,7.338-5.989l4.997-24.275
	c0.835-4.057-1.776-8.023-5.833-8.858c-4.055-0.838-8.023,1.776-8.858,5.833l-4.998,24.275
	C230.683,202.818,233.295,206.784,237.352,207.619z"/>
<path d="M208.312,227.225c1.439,2.201,3.837,3.396,6.284,3.396c1.408,0,2.832-0.396,4.098-1.224
	c3.467-2.267,4.439-6.915,2.173-10.382l-12.138-18.563c-2.267-3.467-6.916-4.44-10.382-2.173c-3.467,2.267-4.439,6.915-2.173,10.382
	L208.312,227.225z"/>
<path d="M181.028,256.324c0.105,0,0.211-0.002,0.317-0.006l17.135-0.714c4.139-0.172,7.354-3.667,7.182-7.806
	c-0.173-4.139-3.676-7.359-7.806-7.182l-17.135,0.714c-4.139,0.172-7.354,3.667-7.182,7.806
	C173.707,253.168,177.029,256.324,181.028,256.324z"/>
<path d="M201.415,308.219c4.019-1.004,6.462-5.077,5.457-9.095l-6.426-25.703c-1.005-4.019-5.078-6.466-9.095-5.457
	c-4.019,1.004-6.462,5.077-5.457,9.095l6.426,25.703c0.852,3.408,3.91,5.683,7.27,5.683
	C200.192,308.445,200.804,308.372,201.415,308.219z"/>
<path d="M197.271,325.862c-2.799-3.053-7.543-3.259-10.597-0.461l-17.135,15.708c-3.054,2.799-3.26,7.543-0.461,10.597
	c1.479,1.614,3.501,2.432,5.531,2.432c1.811,0,3.626-0.652,5.066-1.971l17.135-15.708
	C199.863,333.66,200.07,328.915,197.271,325.862z"/>
<path d="M175.717,367.054c-4.103,0.57-6.967,4.358-6.397,8.46l3.57,25.703c0.521,3.753,3.735,6.469,7.419,6.469
	c0.343,0,0.691-0.024,1.041-0.072c4.103-0.57,6.967-4.358,6.397-8.46l-3.57-25.703C183.608,369.348,179.819,366.491,175.717,367.054
	z"/>
<path d="M125.299,353.554l22.133,9.282c0.947,0.397,1.93,0.585,2.897,0.585c2.931,0,5.715-1.729,6.919-4.602
	c1.602-3.82-0.196-8.215-4.016-9.817l-22.133-9.282c-3.818-1.601-8.215,0.196-9.817,4.016S121.479,351.952,125.299,353.554z"/>
<path d="M148.159,314.754c1.4,2.369,3.898,3.686,6.464,3.686c1.296,0,2.611-0.336,3.808-1.044l15.707-9.281
	c3.566-2.107,4.749-6.707,2.642-10.272s-6.705-4.748-10.272-2.642l-15.707,9.281C147.235,306.589,146.052,311.188,148.159,314.754z"
	/>
<path d="M129.942,307.55c2.465-3.329,1.766-8.025-1.562-10.491l-19.277-14.279c-3.328-2.465-8.026-1.766-10.491,1.562
	c-2.465,3.329-1.766,8.025,1.562,10.491l19.277,14.279c1.342,0.994,2.907,1.474,4.458,1.474
	C126.205,310.586,128.471,309.536,129.942,307.55z"/>
<path d="M117.29,260.844c-0.853,4.053,1.741,8.031,5.794,8.884l27.131,5.712c0.521,0.11,1.041,0.163,1.552,0.163
	c3.472,0,6.588-2.424,7.332-5.957c0.853-4.053-1.741-8.031-5.794-8.884l-27.131-5.712
	C122.118,254.192,118.144,256.791,117.29,260.844z"/>
<path d="M105.445,250.717l12.852-15.708c2.623-3.206,2.15-7.931-1.055-10.554c-3.207-2.622-7.932-2.15-10.554,1.055l-12.852,15.708
	c-2.623,3.206-2.15,7.931,1.055,10.554c1.394,1.14,3.075,1.695,4.745,1.695C101.807,253.468,103.962,252.529,105.445,250.717z"/>
<path d="M103.093,205.471c0.521,0.11,1.041,0.163,1.553,0.163c3.471,0,6.587-2.424,7.332-5.957l2.855-13.565
	c0.854-4.053-1.74-8.031-5.794-8.884c-4.051-0.853-8.031,1.74-8.884,5.794l-2.856,13.565
	C96.445,200.64,99.039,204.618,103.093,205.471z"/>
<path d="M345.651,403.198c0.584,0.139,1.168,0.206,1.744,0.206c3.393,0,6.469-2.319,7.29-5.764l3.57-14.994
	c0.959-4.03-1.529-8.074-5.559-9.033c-4.031-0.958-8.074,1.53-9.033,5.559l-3.57,14.994
	C339.132,398.194,341.621,402.238,345.651,403.198z"/>
<path d="M193.991,97.35c-3.611-2.031-8.183-0.75-10.214,2.86l-6.425,11.423c-2.03,3.61-0.75,8.183,2.86,10.214
	c1.163,0.654,2.425,0.964,3.67,0.964c2.622,0,5.167-1.377,6.544-3.825l6.425-11.423C198.882,103.954,197.601,99.381,193.991,97.35z"
	/>
<g>
</g>
<g>
</g>
<g>
</g>
<g>
</g>
<g>
</g>
<g>
</g>
<g>
</g>
<g>
</g>
<g>
</g>
<g>
</g>
<g>
</g>
<g>
</g>
<g>
</g>
<g>
</g>
<g>
</g>
</svg>
